<svg width="30" height="30" viewBox="0 0 30 30" fill="none" xmlns="http://www.w3.org/2000/svg">
<path d="M11.0248 22.0916H18.0343M14.5303 1.03125V2.53556M24.0763 4.99661L23.0158 6.06016M28.0303 14.57H26.5303M2.53027 14.57H1.03027M6.04477 6.06016L4.98427 4.99661M9.22627 19.8893C8.17758 18.8373 7.46347 17.4971 7.17424 16.0381C6.88501 14.5791 7.03365 13.0669 7.60137 11.6926C8.16908 10.3183 9.13038 9.14376 10.3637 8.31737C11.597 7.49098 13.047 7.04989 14.5303 7.04989C16.0135 7.04989 17.4635 7.49098 18.6968 8.31737C19.9302 9.14376 20.8915 10.3183 21.4592 11.6926C22.0269 13.0669 22.1755 14.5791 21.8863 16.0381C21.5971 17.4971 20.883 18.8373 19.8343 19.8893L19.0123 20.7121C18.5423 21.1835 18.1696 21.7431 17.9153 22.359C17.661 22.9748 17.5302 23.6349 17.5303 24.3014V25.1002C17.5303 25.8982 17.2142 26.6634 16.6516 27.2276C16.089 27.7919 15.3259 28.1088 14.5303 28.1088C13.7346 28.1088 12.9716 27.7919 12.409 27.2276C11.8463 26.6634 11.5303 25.8982 11.5303 25.1002V24.3014C11.5303 22.9551 10.9963 21.6629 10.0483 20.7121L9.22627 19.8893Z" stroke="#999999" stroke-width="2.06065" stroke-linecap="round" stroke-linejoin="round"/>
</svg>
