<svg width="29" height="29" viewBox="0 0 29 29" fill="none" xmlns="http://www.w3.org/2000/svg">
<path d="M14.25 27.75C15.9643 26.8929 19.3929 22.9929 19.3929 14.25C19.3929 5.50714 15.9643 1.60714 14.25 0.75M14.25 27.75C12.5357 26.8929 9.10714 22.9929 9.10714 14.25C9.10714 5.50714 12.5357 1.60714 14.25 0.75M14.25 27.75C19.8849 27.75 24.7134 24.2977 26.7359 19.3929M14.25 27.75C8.61515 27.75 3.78662 24.2977 1.76414 19.3929M14.25 0.75C19.8849 0.75 24.7134 4.20229 26.7359 9.10714M14.25 0.75C8.61515 0.75 3.78662 4.20229 1.76414 9.10714M26.7359 19.3929C27.3895 17.8078 27.75 16.071 27.75 14.25C27.75 12.8102 27.5246 11.423 27.1071 10.1218C26.9966 9.77735 26.8727 9.43892 26.7359 9.10714M26.7359 19.3929H1.76414M1.76414 19.3929C1.11054 17.8078 0.75 16.071 0.75 14.25C0.75 12.8102 0.975407 11.423 1.39286 10.1218C1.50337 9.77735 1.62733 9.43892 1.76414 9.10714M26.7359 9.10714H1.76414" stroke="#999999" stroke-width="1.5"/>
</svg>
