<svg width="24" height="24" viewBox="0 0 24 24" fill="none" xmlns="http://www.w3.org/2000/svg">
<path d="M17.5527 11.8535C17.5527 14.8376 15.1337 17.2567 12.1496 17.2567C9.16548 17.2567 6.74639 14.8376 6.74639 11.8535C6.74639 8.86944 9.16548 6.45036 12.1496 6.45036C15.1337 6.45036 17.5527 8.86944 17.5527 11.8535Z" fill="#999999"/>
<path d="M11.4194 2.5075C11.4194 2.10425 11.7463 1.77734 12.1496 1.77734C12.5528 1.77734 12.8797 2.10425 12.8797 2.5075V3.38369C12.8797 3.78695 12.5528 4.11385 12.1496 4.11385C11.7463 4.11385 11.4194 3.78695 11.4194 3.38369V2.5075Z" fill="#999999"/>
<path d="M11.4194 20.6154C11.4194 20.2122 11.7463 19.8853 12.1496 19.8853C12.5528 19.8853 12.8797 20.2122 12.8797 20.6154V21.4916C12.8797 21.8949 12.5528 22.2218 12.1496 22.2218C11.7463 22.2218 11.4194 21.8949 11.4194 21.4916V20.6154Z" fill="#999999"/>
<path d="M4.80212 5.69515C4.51698 5.41 4.51698 4.94769 4.80212 4.66255C5.08726 4.3774 5.54958 4.3774 5.83472 4.66255L6.45428 5.28211C6.73943 5.56725 6.73943 6.02956 6.45428 6.31471C6.16914 6.59985 5.70682 6.59985 5.42168 6.31471L4.80212 5.69515Z" fill="#999999"/>
<path d="M17.8344 18.7274C17.5492 18.4423 17.5492 17.9799 17.8344 17.6948C18.1195 17.4097 18.5818 17.4097 18.867 17.6948L19.4865 18.3144C19.7717 18.5995 19.7717 19.0618 19.4865 19.347C19.2014 19.6321 18.7391 19.6321 18.4539 19.347L17.8344 18.7274Z" fill="#999999"/>
<path d="M6.6003 18.7274C6.88544 18.4423 6.88544 17.9799 6.6003 17.6948C6.31515 17.4097 5.85284 17.4097 5.5677 17.6948L4.94814 18.3144C4.66299 18.5995 4.66299 19.0618 4.94814 19.347C5.23328 19.6321 5.69559 19.6321 5.98074 19.347L6.6003 18.7274Z" fill="#999999"/>
<path d="M19.4865 5.69515C19.7717 5.41 19.7717 4.94769 19.4865 4.66254C19.2014 4.3774 18.7391 4.3774 18.4539 4.66254L17.8344 5.28211C17.5492 5.56725 17.5492 6.02956 17.8344 6.31471C18.1195 6.59985 18.5818 6.59985 18.867 6.31471L19.4865 5.69515Z" fill="#999999"/>
<path d="M2.51141 12.5837C2.10815 12.5837 1.78125 12.2568 1.78125 11.8535C1.78125 11.4503 2.10815 11.1234 2.51141 11.1234H3.3876C3.79085 11.1234 4.11776 11.4503 4.11776 11.8535C4.11776 12.2568 3.79085 12.5837 3.3876 12.5837H2.51141Z" fill="#999999"/>
<path d="M20.6193 12.5837C20.2161 12.5837 19.8892 12.2568 19.8892 11.8535C19.8892 11.4503 20.2161 11.1234 20.6193 11.1234H21.4955C21.8988 11.1234 22.2257 11.4503 22.2257 11.8535C22.2257 12.2568 21.8988 12.5837 21.4955 12.5837H20.6193Z" fill="#999999"/>
</svg>
