<svg width="20" height="18" viewBox="0 0 20 18" fill="none" xmlns="http://www.w3.org/2000/svg">
<path d="M13.962 14.7081L5.17068 14.2497M13.962 14.7081C13.8933 13.8219 14.3885 12.9351 15.2648 12.5265M13.962 14.7081C13.9811 14.954 14.0436 15.1998 14.1535 15.4354M5.17068 14.2497C4.98297 14.8148 4.56483 15.3092 3.97268 15.5853M5.17068 14.2497C5.33784 13.7465 5.32225 13.1873 5.08403 12.6765M14.1535 15.4354C14.6592 16.5199 15.9767 16.9759 17.0962 16.4538C18.2157 15.9318 18.7132 14.6295 18.2075 13.545C17.7018 12.4605 16.3843 12.0045 15.2648 12.5265M14.1535 15.4354C13.6478 14.3509 14.1453 13.0485 15.2648 12.5265M9.23439 4.56963L3.95444 11.6068M9.23439 4.56963C9.05829 4.39695 8.91015 4.19104 8.80031 3.95548M9.23439 4.56963C9.86902 5.19192 10.8667 5.38257 11.743 4.97393M3.95444 11.6068C4.43872 11.8042 4.84902 12.1725 5.08403 12.6765M3.95444 11.6068C3.3966 11.3794 2.7406 11.3786 2.14134 11.658M8.80031 3.95548C8.29459 2.87098 8.79216 1.56863 9.91165 1.0466C11.0311 0.524576 12.3486 0.980551 12.8543 2.06505C13.3601 3.14955 12.8625 4.4519 11.743 4.97393M8.80031 3.95548C9.30602 5.03998 10.6235 5.49596 11.743 4.97393M5.08403 12.6765C4.57832 11.592 3.26083 11.136 2.14134 11.658M5.08403 12.6765C5.58974 13.761 5.09217 15.0633 3.97268 15.5853M2.14134 11.658C1.02185 12.18 0.524283 13.4824 1.02999 14.5669C1.53571 15.6514 2.85319 16.1074 3.97268 15.5853" stroke="#4178CF" stroke-width="1.6625"/>
</svg>
