<svg width="83" height="21" viewBox="0 0 83 21" fill="none" xmlns="http://www.w3.org/2000/svg">
<path d="M10.1855 16.4668H10.4111L16.3486 0H20.75L12.7471 20.75H7.83887L0 0H4.40137L10.1855 16.4668ZM49.5693 20.75H45.168L39.2305 4.2832H39.0049L33.2207 20.75H28.8193L36.6582 0H41.5664L49.5693 20.75ZM77.2363 20.75H72.835L66.8965 4.2832H66.6719L60.8877 20.75H56.4863L64.3242 0H69.2334L77.2363 20.75ZM26.5137 20.749H23.0557V0H26.5137V20.749ZM53.0273 16.1387C54.3007 16.1387 55.333 17.171 55.333 18.4443C55.3328 19.7175 54.3005 20.749 53.0273 20.749C51.7543 20.7489 50.7219 19.7174 50.7217 18.4443C50.7217 17.1711 51.7542 16.1388 53.0273 16.1387ZM83 20.749H79.542V0H83V20.749ZM39.1943 12.6807C40.4676 12.6807 41.5 13.713 41.5 14.9863C41.5 16.2597 40.4677 17.292 39.1943 17.292C37.9211 17.2919 36.8887 16.2596 36.8887 14.9863C36.8887 13.7131 37.9211 12.6808 39.1943 12.6807ZM66.8613 12.6807C68.1345 12.6808 69.167 13.7131 69.167 14.9863C69.167 16.2596 68.1345 17.2919 66.8613 17.292C65.588 17.292 64.5557 16.2597 64.5557 14.9863C64.5557 13.713 65.588 12.6807 66.8613 12.6807Z" fill="#555555"/>
</svg>
