<svg width="374" height="156" viewBox="0 0 374 156" fill="none" xmlns="http://www.w3.org/2000/svg">
<path d="M135.273 99.6396H136.075L157.22 41H172.895L144.396 114.895H126.914L99 41H114.675L135.273 99.6396ZM275.526 114.895H259.852L238.706 56.2549H237.905L217.307 114.895H201.632L229.546 41H247.027L275.526 114.895ZM193.421 114.891H181.105V41H193.421V114.891ZM238.579 86.1582C243.114 86.1583 246.789 89.8337 246.789 94.3682C246.789 98.9027 243.114 102.579 238.579 102.579C234.045 102.579 230.368 98.9027 230.368 94.3682C230.368 89.8337 234.045 86.1582 238.579 86.1582Z" fill="#CCCCCC"/>
</svg>
