<svg width="84" height="21" viewBox="0 0 84 21" fill="none" xmlns="http://www.w3.org/2000/svg">
<path d="M53.666 16.334C54.9546 16.334 55.9998 17.3785 56 18.667C56 19.9557 54.9547 21.001 53.666 21.001C52.3776 21.0007 51.333 19.9555 51.333 18.667C51.3332 17.3786 52.3777 16.3342 53.666 16.334ZM10.3086 16.665H10.5361L16.5459 0H21L12.9014 21H7.93262L0 0H4.4541L10.3086 16.665ZM50.167 21H45.7119L39.7031 4.33496H39.4756L33.6211 21H29.167L37.0996 0H42.0674L50.167 21ZM78.167 21H73.7119L67.7031 4.33496H67.4746L61.6211 21H57.167L65.0996 0H70.0674L78.167 21ZM26.833 20.999H23.333V0H26.833V20.999ZM84 20.999H80.5V0H84V20.999ZM39.667 12.834C40.9554 12.8341 41.9998 13.8786 42 15.167C42 16.4556 40.9555 17.5008 39.667 17.501C38.3783 17.501 37.333 16.4557 37.333 15.167C37.3332 13.8785 38.3784 12.834 39.667 12.834ZM67.667 12.834C68.9554 12.8342 69.9998 13.8786 70 15.167C70 16.4555 68.9555 17.5008 67.667 17.501C66.3783 17.501 65.333 16.4557 65.333 15.167C65.3332 13.8785 66.3784 12.834 67.667 12.834Z" fill="#CCCCCC"/>
</svg>
