<svg width="36" height="36" viewBox="0 0 36 36" fill="none" xmlns="http://www.w3.org/2000/svg">
<circle cx="18" cy="18" r="18" fill="#272727"/>
<path d="M12.3515 12.3527C12.8201 11.8841 13.5799 11.8841 14.0485 12.3527L24.2309 22.5351C24.6995 23.0037 24.6995 23.7635 24.2309 24.2321C23.7622 24.7008 23.0024 24.7008 22.5338 24.2321L12.3515 14.0498C11.8828 13.5812 11.8828 12.8214 12.3515 12.3527Z" fill="#4178CF"/>
<path d="M12.3517 24.2309C11.883 23.7622 11.883 23.0024 12.3517 22.5338L22.534 12.3515C23.0026 11.8828 23.7624 11.8828 24.231 12.3515C24.6997 12.8201 24.6997 13.5799 24.231 14.0485L14.0487 24.2309C13.5801 24.6995 12.8203 24.6995 12.3517 24.2309Z" fill="#4178CF"/>
</svg>
