<svg width="38" height="38" viewBox="0 0 38 38" fill="none" xmlns="http://www.w3.org/2000/svg">
<rect width="38" height="38" rx="19" fill="#4F4F4F"/>
<path d="M13.4022 19.6904C13.8239 19.6904 14.1592 20.035 14.2274 20.4512C14.3856 21.4175 14.8434 22.3172 15.5448 23.0186C16.4274 23.9012 17.6247 24.3975 18.8729 24.3975C20.1209 24.3974 21.3175 23.901 22.2 23.0186C22.9014 22.3172 23.3592 21.4175 23.5174 20.4512C23.5856 20.035 23.9209 19.6904 24.3426 19.6904H24.9813C25.403 19.6904 25.7497 20.034 25.703 20.4531C25.5309 21.9954 24.8402 23.4429 23.7323 24.5508C22.7168 25.5662 21.4158 26.2285 20.0184 26.4648V30.0059H17.7274V26.4648C16.3296 26.2286 15.0282 25.5664 14.0125 24.5508C12.9046 23.4429 12.2139 21.9954 12.0418 20.4531C11.9951 20.034 12.3418 19.6904 12.7635 19.6904H13.4022ZM18.8739 9.00391C20.7717 9.00397 22.3104 10.5426 22.3104 12.4404V18.167C22.3104 20.0648 20.7717 21.6035 18.8739 21.6035C16.976 21.6035 15.4373 20.0648 15.4373 18.167V12.4404C15.4373 10.5426 16.976 9.00391 18.8739 9.00391Z" fill="#4178CF"/>
</svg>
