<svg width="38" height="38" viewBox="0 0 38 38" fill="none" xmlns="http://www.w3.org/2000/svg">
<rect width="38" height="38" rx="19" fill="#B4B4B4"/>
<path d="M13.4027 19.6904C13.8244 19.6905 14.1597 20.035 14.2279 20.4512C14.386 21.4174 14.8431 22.3172 15.5443 23.0186C16.4268 23.9011 17.6243 24.3974 18.8724 24.3975C20.1206 24.3975 21.3179 23.9012 22.2005 23.0186C22.9018 22.3172 23.3587 21.4175 23.5169 20.4512C23.5851 20.035 23.9214 19.6904 24.3431 19.6904H24.9818C25.4035 19.6904 25.7502 20.034 25.7035 20.4531C25.5314 21.9954 24.8406 23.4429 23.7328 24.5508C22.7171 25.5664 21.4156 26.2285 20.0179 26.4648V30.0059H17.7269V26.4648C16.3294 26.2285 15.0285 25.5662 14.013 24.5508C12.9051 23.4429 12.2144 21.9954 12.0423 20.4531C11.9956 20.034 12.3423 19.6904 12.764 19.6904H13.4027ZM18.8744 9.00391C20.772 9.00414 22.3099 10.5427 22.3099 12.4404V18.167C22.3099 20.0647 20.772 21.6033 18.8744 21.6035C16.9765 21.6035 15.4378 20.0648 15.4378 18.167V12.4404C15.4378 10.5426 16.9765 9.00391 18.8744 9.00391Z" fill="#4178CF"/>
</svg>
