<svg width="38" height="38" viewBox="0 0 38 38" fill="none" xmlns="http://www.w3.org/2000/svg">
<rect x="0.5" y="0.5" width="37" height="37" rx="18.5" stroke="#BCBCBC"/>
<path d="M13.3647 19.6865C13.7863 19.6867 14.1218 20.0312 14.1899 20.4473C14.3481 21.4135 14.8051 22.3133 15.5063 23.0146C16.389 23.8973 17.5862 24.3936 18.8345 24.3936C20.0827 24.3935 21.28 23.8973 22.1626 23.0146C22.8638 22.3133 23.3208 21.4135 23.479 20.4473C23.5471 20.0312 23.8826 19.6867 24.3042 19.6865H24.9438C25.3655 19.6867 25.7113 20.0302 25.6646 20.4492C25.4925 21.9915 24.8018 23.439 23.6938 24.5469C22.6783 25.5623 21.3775 26.2246 19.98 26.4609V30.002H17.689V26.4609C16.2915 26.2246 14.9906 25.5623 13.9751 24.5469C12.8672 23.439 12.1765 21.9915 12.0044 20.4492C11.9576 20.0302 12.3035 19.6867 12.7251 19.6865H13.3647ZM18.8354 9C20.7333 9 22.272 10.5387 22.272 12.4365V18.1631C22.272 20.0609 20.7333 21.5996 18.8354 21.5996C16.9377 21.5995 15.3989 20.0609 15.3989 18.1631V12.4365C15.3989 10.5388 16.9377 9.00013 18.8354 9Z" fill="#4178CF"/>
</svg>
