<svg width="38" height="38" viewBox="0 0 38 38" fill="none" xmlns="http://www.w3.org/2000/svg">
<rect x="0.5" y="0.5" width="37" height="37" rx="18.5" stroke="#4F4F4F"/>
<path d="M13.3646 19.6865C13.7863 19.6866 14.1216 20.0311 14.1898 20.4473C14.3479 21.4135 14.805 22.3133 15.5062 23.0146C16.3888 23.8972 17.5862 24.3935 18.8343 24.3936C20.0825 24.3936 21.2798 23.8973 22.1624 23.0146C22.8637 22.3133 23.3206 21.4136 23.4788 20.4473C23.547 20.0311 23.8833 19.6865 24.305 19.6865H24.9437C25.3654 19.6865 25.7121 20.0301 25.6654 20.4492C25.4933 21.9915 24.8026 23.4389 23.6947 24.5469C22.6791 25.5625 21.3776 26.2246 19.9798 26.4609V30.002H17.6888V26.4609C16.2914 26.2246 14.9904 25.5623 13.9749 24.5469C12.867 23.439 12.1763 21.9915 12.0042 20.4492C11.9575 20.0301 12.3042 19.6865 12.7259 19.6865H13.3646ZM18.8363 9C20.7339 9.00023 22.2718 10.5388 22.2718 12.4365V18.1631C22.2718 20.0608 20.7339 21.5994 18.8363 21.5996C16.9384 21.5996 15.3997 20.0609 15.3997 18.1631V12.4365C15.3997 10.5387 16.9384 9 18.8363 9Z" fill="#4178CF"/>
</svg>
