<svg width="38" height="38" viewBox="0 0 38 38" fill="none" xmlns="http://www.w3.org/2000/svg">
<rect width="38" height="38" rx="19" fill="#4F4F4F"/>
<path d="M13.4028 19.6904C13.8245 19.6905 14.1599 20.035 14.228 20.4512C14.3862 21.4174 14.8432 22.3173 15.5444 23.0186C16.427 23.9011 17.6244 24.3974 18.8726 24.3975C20.1208 24.3975 21.3181 23.9012 22.2007 23.0186C22.902 22.3172 23.3589 21.4174 23.5171 20.4512C23.5852 20.035 23.9215 19.6904 24.3433 19.6904H24.9819C25.4036 19.6905 25.7494 20.034 25.7026 20.4531C25.5305 21.9953 24.8408 23.4429 23.7329 24.5508C22.7173 25.5664 21.4158 26.2285 20.0181 26.4648V30H17.7271V26.4648C16.3296 26.2285 15.0287 25.5662 14.0132 24.5508C12.9053 23.4429 12.2146 21.9954 12.0425 20.4531C11.9957 20.0341 12.3417 19.6907 12.7632 19.6904H13.4028ZM18.8726 9C20.7704 9 22.3091 10.5387 22.3091 12.4365V18.1641C22.3089 20.0617 20.7703 21.5996 18.8726 21.5996C16.9749 21.5995 15.4363 20.0616 15.436 18.1641V12.4365C15.436 10.5387 16.9748 9.00011 18.8726 9Z" fill="#999999"/>
</svg>
