<svg width="20" height="20" viewBox="0 0 20 20" fill="none" xmlns="http://www.w3.org/2000/svg">
<path d="M2.4026 18C1.85031 18 1.4026 18.4477 1.4026 19C1.4026 19.5523 1.85031 20 2.4026 20V19V18ZM1 6.17808L0.321772 5.44323C0.116658 5.63254 0 5.89896 0 6.17808C0 6.4572 0.116658 6.72363 0.321772 6.91293L1 6.17808ZM7.28862 1.73485C7.69446 1.36028 7.71982 0.72762 7.34524 0.321772C6.97067 -0.0840752 6.33801 -0.109427 5.93216 0.265148L6.61039 1L7.28862 1.73485ZM5.93216 12.091C6.33801 12.4656 6.97067 12.4402 7.34524 12.0344C7.71982 11.6285 7.69446 10.9959 7.28862 10.6213L6.61039 11.3562L5.93216 12.091ZM19 12.589H18C18 15.6284 15.6769 18 12.9221 18V19V20C16.8807 20 20 16.6311 20 12.589H19ZM12.9221 6.17808V7.17808C15.6769 7.17808 18 9.54972 18 12.589H19H20C20 8.54702 16.8807 5.17808 12.9221 5.17808V6.17808ZM12.9221 19V18H2.4026V19V20H12.9221V19ZM12.9221 6.17808V5.17808H1V6.17808V7.17808H12.9221V6.17808ZM1 6.17808L1.67823 6.91293L7.28862 1.73485L6.61039 1L5.93216 0.265148L0.321772 5.44323L1 6.17808ZM1 6.17808L0.321772 6.91293L5.93216 12.091L6.61039 11.3562L7.28862 10.6213L1.67823 5.44323L1 6.17808Z" fill="#4F4F4F"/>
</svg>
