<svg width="24" height="24" viewBox="0 0 24 24" fill="none" xmlns="http://www.w3.org/2000/svg">
<path d="M9.59824 4.79068C9.59824 4.08246 10.0793 2.66602 12.0035 2.66602C13.9277 2.66602 14.4087 4.08246 14.4087 4.79068V19.208C14.4087 19.9162 13.9277 21.3327 12.0035 21.3327C10.0793 21.3327 9.59824 19.9162 9.59824 19.208V4.79068Z" fill="#4F4F4F"/>
<path d="M17.4152 10.4059C17.4152 9.69763 17.8963 8.28119 19.8205 8.28119C21.7446 8.28119 22.2257 9.69763 22.2257 10.4059V19.208C22.2257 19.9162 21.7446 21.3327 19.8205 21.3327C17.8963 21.3327 17.4152 19.9162 17.4152 19.208V10.4059Z" fill="#4F4F4F"/>
<path d="M1.78125 19.208C1.78125 19.9162 2.2623 21.3327 4.18648 21.3327C6.11066 21.3327 6.59171 19.9162 6.59171 19.208V14.6552C6.59171 13.947 6.11066 12.5305 4.18648 12.5305C2.2623 12.5305 1.78125 13.947 1.78125 14.6552V19.208Z" fill="#4F4F4F"/>
</svg>
