<svg width="24" height="20" viewBox="0 0 24 20" fill="none" xmlns="http://www.w3.org/2000/svg">
<path d="M0.139147 1.63756C0.000474928 1.34018 -0.276862 0.74543 0.777967 0.253539C2.13418 -0.378892 20.8087 0.326239 22.2796 0.726508C23.4562 1.04672 23.4236 2.00329 23.1102 2.51148C22.4715 3.89508 10.8629 18.7162 9.6515 19.2867C8.59666 19.7785 8.31932 19.1838 8.18065 18.8864L6.18577 11.8516C5.97319 11.0818 6.22196 10.7486 6.37292 10.6782L14.9983 5.56998C15.0988 5.52314 15.272 5.36997 15.1611 5.13206C15.0501 4.89416 14.8215 4.92837 14.721 4.97522L5.26355 8.29916C5.11259 8.36956 4.69741 8.34593 4.24437 7.68828C2.8858 5.69633 0.277818 1.93495 0.139147 1.63756Z" fill="#4178CF"/>
</svg>
