<svg xmlns="http://www.w3.org/2000/svg" width="263.06" height="143.583" viewBox="0 0 263.06 143.583">
    <defs>
        <clipPath id="g7bbmv31ga">
            <path data-name="Rectángulo 11641" style="fill:none" d="M0 0h263.06v143.583H0z"/>
        </clipPath>
    </defs>
    <g data-name="Grupo 9817">
        <g data-name="Grupo 9816" style="clip-path:url(#g7bbmv31ga)">
            <path data-name="Trazado 15857" d="M4.077 64.1c-.2-1.176-.416-2.426-.643-3.759a44.653 44.653 0 0 0-.574-6.173C2.259 52.6 1.633 50.98 1 49.324.662 42.831.318 36.266.022 29.675a9.222 9.222 0 0 1 .447-3.525A20.527 20.527 0 0 1 2.1 22.61a4.4 4.4 0 0 0 .676-.832 14.168 14.168 0 0 1 .442-1.467c.174-.578.409-1.252.679-2 .213-.22.557-.562 1.042-1.016.511-.447 1.154-1.073 1.984-1.852.344-.418.724-.887 1.166-1.458.43-.545.92-1.207 1.494-1.957a44.532 44.532 0 0 0 3.709-3.9 11.477 11.477 0 0 1 4.739-3.171 174 174 0 0 0 2.937-.973c.968-.308 1.9-.64 2.784-.965a19.064 19.064 0 0 1 2.2-.891c.394-.184.774-.373 1.056-.533a4.067 4.067 0 0 1 .851-.354 8.933 8.933 0 0 1 1.083-.22c.488-.069 1.114-.141 1.95-.249A23.119 23.119 0 0 0 32.457.4c.423-.118.836-.252 1.223-.4a8.506 8.506 0 0 1 4.428.86 4.614 4.614 0 0 1 2.218 2.67 13.912 13.912 0 0 1 .932 5.87 2.8 2.8 0 0 1-2.148 2.58 6.331 6.331 0 0 1-3.64-.342c-1.484-.488-4.9 0-10.212 1.463-2.086.958-4.161 1.933-6.218 2.887a2.133 2.133 0 0 1-.5.872c-.249.208-.454.39-.655.528l-2.492-.088a5.483 5.483 0 0 0-1.761 2.454 23.545 23.545 0 0 0-1.417 4.806 4.228 4.228 0 0 0-.048 1.5 10.98 10.98 0 0 0 .461 1.94c.084 2.846.134 5.607.127 8.266.117 2.822.165 4.988.158 6.453-.026 1.472-.019 2.368-.026 2.689 0 .392 1.042 2.49 1.063 2.851.026.342-.954-1.025-.851-.707a1.982 1.982 0 0 0 .664 1.016 1.3 1.3 0 0 0 1.1.105 7.681 7.681 0 0 1 1.075.122 71.488 71.488 0 0 0-7.941 8.618 25.891 25.891 0 0 0-3.92 6.687m51.993-3.03 4.089 4.366a14.369 14.369 0 0 1-1.348 1.656c-.523.607-1.181 1.262-1.933 1.993a48.238 48.238 0 0 0-2.908 1.981c-1.126.836-2.419 1.783-3.855 2.846-1.052 1.025-1.907 1.783-2.6 2.342a5.575 5.575 0 0 1-1.5.944 14.685 14.685 0 0 0-2.894 1.441 126.02 126.02 0 0 0-5.286 3.425c-.545.354-1.106.707-1.68 1.073l-2.12-1.109a189.335 189.335 0 0 1-7.432-4.034 124.46 124.46 0 0 1-1.532-.906 7.16 7.16 0 0 1 .315-.072c1.159-.234 2.313-.466 3.508-.715l4.017-1.408a22.059 22.059 0 0 0 2.526-1.651 12.548 12.548 0 0 1 3.68-1.842 21.775 21.775 0 0 0 3.7-1.381 25.358 25.358 0 0 0 3.372-1.881 91.154 91.154 0 0 0 3.116-2.079c1.03-.691 2.065-1.374 3.116-2.074a14.461 14.461 0 0 0 1.51-1.066 47.715 47.715 0 0 0 2.137-1.845" style="fill:#8D8F94"/>
            <path data-name="Trazado 15858" d="M49.524 91.861a83.541 83.541 0 0 1-10.8 11.713 58.612 58.612 0 0 1-11.641 8.207c-.946.468-2.024 1.016-3.253 1.623a11.73 11.73 0 0 1-2.741.263 26.744 26.744 0 0 1-3.52-.33 14.286 14.286 0 0 1-3.279-1.03 2.494 2.494 0 0 1-1.472-1.475c-.347-1.173.041-2.495 1.195-3.95a23.626 23.626 0 0 1 5.5-4.722c5.052-3.429 9.985-6.871 14.877-10.3a3.166 3.166 0 0 1 1.857-.048 1.256 1.256 0 0 1 .8.841c.306 1.071-.413 2.2-2.132 3.4s-2.552 1.967-2.454 2.289a1.509 1.509 0 0 0 1.1.361q.961-.24 3.656-3.367c1.8-2.084 2.6-3.317 2.43-3.714l-.75-1.259.084-.282a17.068 17.068 0 0 0 2.189-3.133A2.918 2.918 0 0 0 41.623 85q-.419-1.48-3.028-3.494a52.95 52.95 0 0 0-7.406-4.579 69.5 69.5 0 0 0-7.162-3.477q-3.484-1.441-6.591-2.464a15.11 15.11 0 0 1-2.232-.944 10.668 10.668 0 0 1-1.582-.975c-.767-.655-1.388-1.195-1.874-1.613a3.45 3.45 0 0 0-1.173-.8 8.7 8.7 0 0 0-1.247-.6c-.542-.234-1.161-.488-1.881-.789a9.044 9.044 0 0 1-3.5-2.994 17.214 17.214 0 0 1-2.543-5.535 11.962 11.962 0 0 1-.452-4.543 11.142 11.142 0 0 1 1.2-4.316 8.219 8.219 0 0 0 .217-.944c.069-.361.115-.736.2-1.19a23.877 23.877 0 0 1 4.168-7.451 74.941 74.941 0 0 1 8.871-9.488c.552-.4 1.173-.9 1.912-1.489a27.111 27.111 0 0 0 2.44-2.261 12.116 12.116 0 0 1 1.67-1.541 18.364 18.364 0 0 1 2.347-1.527c1.24-.777 2.655-1.623 4.2-2.567q3.359-2.445 5.616-3.781A16.033 16.033 0 0 1 37.381 14a5.641 5.641 0 0 1 4.084.272 4.948 4.948 0 0 1 2.225 3.114 13.833 13.833 0 0 1 .681 4.175 3.681 3.681 0 0 1-.705 2.423c-4.87 5.174-8.83 9.136-11.923 11.9-3.061 2.765-5.348 4.323-6.813 4.686a2.9 2.9 0 0 1-1.78-.057 1.884 1.884 0 0 1-1.011-1.293c-.311-1.071.456-2.512 2.356-4.345s2.722-3.092 2.478-3.74l-.779-.2a2.446 2.446 0 0 0-.822.4 7.6 7.6 0 0 0-.87.71 58.072 58.072 0 0 0-7.815 10.009c-1.594 2.772-2.156 5.009-1.678 6.663a10.452 10.452 0 0 0 2.024 3.747 20.735 20.735 0 0 0 3.723 3.515c1.085.789 2.638 1.752 4.6 2.892 1.981 1.133 4.447 2.5 7.432 4.034 4.132 2.163 7.327 3.826 9.543 5.007A36.078 36.078 0 0 0 46 69.738a27.1 27.1 0 0 1 3.472 2.433 11.179 11.179 0 0 1 2.306 2.614 15.282 15.282 0 0 1 1.319 2.66 13.665 13.665 0 0 1 1.317 3.979c.344 3.551-3.9 8.18-4.892 10.436" transform="translate(1.253 19.121)" style="fill:#1F43A9"/>
            <path data-name="Trazado 15859" d="m125.625 39.81-.373-.155a22.926 22.926 0 0 0-4.519 4.1 6.185 6.185 0 0 0-1.518 3.747 2.473 2.473 0 0 1-.339.944 21.384 21.384 0 0 1-1.042 1.7 65.101 65.101 0 0 0-1.771 2.741c-.676 1.506-1.195 2.722-1.546 3.661a6.79 6.79 0 0 0-.533 2.012l.325.323a2.173 2.173 0 0 0 1.169-.722 13.672 13.672 0 0 0 1.608-2.017 12.627 12.627 0 0 1 1.231-1.687 90.63 90.63 0 0 0 1.809-2.3 22.879 22.879 0 0 0 2.722-4.541 22.98 22.98 0 0 0 2.031-4.67 6.717 6.717 0 0 1 .3-1.592c.16-.519.306-1.035.449-1.549m21.442 18.729c-.779 0-1.826.772-3.131 2.3s-1.962 2.662-1.962 3.382a.406.406 0 0 0 .131.342 1.017 1.017 0 0 0 .552.1 1.175 1.175 0 0 0 .963-.454c.246-.306.476-.6.691-.865.387-.265.765-.554 1.138-.863s.734-.6 1.092-.9a4.632 4.632 0 0 0 .956-1.123 2.326 2.326 0 0 0 .315-1.121.854.854 0 0 0-.186-.578.689.689 0 0 0-.559-.222M24.887 70.882l.208-.325c.215-.215.49-.485.832-.805s.743-.7 1.207-1.128a51.764 51.764 0 0 0 7.385-6.338 78.391 78.391 0 0 0 7.124-8.472 13.547 13.547 0 0 0 .958-1.166c.354-.48.741-1.087 1.176-1.814a.435.435 0 0 0-.165-.361.9.9 0 0 0-.533-.119 6.281 6.281 0 0 0-1.042.141 5.99 5.99 0 0 1-1.085.141h-6.668c-.284 0-.76-.012-1.41-.036s-1.133-.048-1.415-.048c-.354-.134-.683-.249-.989-.339s-.593-.194-.877-.3a2.669 2.669 0 0 1-.98-.428.752.752 0 0 1-.354-.619 8.7 8.7 0 0 1 .719-3.943 2.357 2.357 0 0 1 2.211-1.372c.994 0 1.926.031 2.806.1s1.642.155 2.313.263a59.653 59.653 0 0 0 1.5-.244c.956 0 1.768.031 2.447.081a12.169 12.169 0 0 1 1.546.2c.464-.079.92-.148 1.36-.217l1.467-.22 1.759.4q1.857-.161 3.96-3.95t4.49-3.781a2.913 2.913 0 0 1 1.969.6 2.22 2.22 0 0 1 .7 1.771 6.126 6.126 0 0 1-.717 2.43 8.86 8.86 0 0 0-.832 2.266 2.87 2.87 0 0 0 .306.349 5.113 5.113 0 0 0 .578.423.912.912 0 0 1 .471.542 2.92 2.92 0 0 1 .139.946 18.154 18.154 0 0 1-.3 3.728c-.2.875-.509 1.324-.939 1.35l-3.64.562c-.076.27-.165.6-.27.992s-.249.839-.428 1.348q-.9 2.011-2.012 5.114t-2.494 7.326q-.85 3.373-1.3 5.47a16.785 16.785 0 0 0-.449 2.818 1.505 1.505 0 0 0 .27.965.965.965 0 0 0 .8.318A9.847 9.847 0 0 0 49 74.338c1.255-.729 2.982-1.8 5.167-3.193l-.019-.01a27.131 27.131 0 0 1 3.778-2.371 36.545 36.545 0 0 0 3.764-2.282c.535-.483 1.233-1.068 2.082-1.749s1.859-1.5 3.026-2.44a11.03 11.03 0 0 1 2.072-1.128 5.4 5.4 0 0 1 2.027-.4 3.554 3.554 0 0 1 2 .485 1.708 1.708 0 0 1 .726 1.529 14.343 14.343 0 0 1-1.6 5.076 14.255 14.255 0 0 0-1.6 5.317.636.636 0 0 0 .234.564 1.016 1.016 0 0 0 .562.16l.268-.041a51.463 51.463 0 0 0 5.458-3.056 80.756 80.756 0 0 0 3.449-2.531 485.336 485.336 0 0 1 4.849-3.613c.712-.428 1.52-.98 2.433-1.649s1.933-1.472 3.08-2.419a4.655 4.655 0 0 1 1.944-1.116 9.977 9.977 0 0 1 3.073-.4 3.935 3.935 0 0 1 1.84.337 1.107 1.107 0 0 1 .612 1.03 1.8 1.8 0 0 1-.081.542c-.048.17-.1.337-.131.5-.249.805-.621 1.788-1.118 2.956s-1.106 2.543-1.811 4.12a38.947 38.947 0 0 0-1.9 3.563c-.662 1.377-1.36 2.9-2.115 4.565l.375.361a17.294 17.294 0 0 0 3.322-1.9q2.215-1.491 5.568-4.005l.033.055a8.1 8.1 0 0 0 .731-.784 10.577 10.577 0 0 1 1.293-1.269l3.527-2.332a.388.388 0 0 0 .237-.318 3.929 3.929 0 0 0 .029-.566 3.756 3.756 0 0 0-.16-.844 16.456 16.456 0 0 1 .483-3.1 8.026 8.026 0 0 1 .851-2.617l-.318-.762a51.455 51.455 0 0 1 1.948-5.891q1.255-3.194 2.861-6.94a13.846 13.846 0 0 0 1.118-1.63c.39-.66.836-1.4 1.341-2.234a29.979 29.979 0 0 1 2.4-4.383c1-1.527 2.122-3.1 3.372-4.7a31.242 31.242 0 0 1 4.455-4.792 5.8 5.8 0 0 1 3.5-1.611q3.1 0 4.244.908c.765.6 1.152 1.737 1.152 3.4a10.723 10.723 0 0 1-.3 1.993 9.993 9.993 0 0 0-.289 2.031 5.07 5.07 0 0 1-.588 1.931 5.39 5.39 0 0 0-.588 2.292 1.808 1.808 0 0 1-.27.643l.05.566a12.479 12.479 0 0 1-.638 1.367 29.93 29.93 0 0 1-1.123 1.926c-.251.674-.576 1.455-.956 2.335s-.863 1.852-1.4 2.9c-.206.268-.483.6-.822.987s-.71.824-1.1 1.307a6.226 6.226 0 0 1-.531 1.2 18.4 18.4 0 0 1-1.016 1.606 7.5 7.5 0 0 1-.856 1.049c-.354.375-.786.858-1.281 1.446a11.059 11.059 0 0 0-.7 1c-.246.4-.528.863-.853 1.372-.387.459-.906 1.02-1.549 1.69s-1.369 1.463-2.182 2.375a76.054 76.054 0 0 1-3.422 4.22q0 3.9 2.053 5.893t6.168 1.991a12.468 12.468 0 0 0 1.618-.28c.891-.189 2.137-.485 3.711-.882a18.368 18.368 0 0 0 1.67-.913 57.51 57.51 0 0 0 1.771-1.1l-.021-.029a11.013 11.013 0 0 1 1.647-1.749 19.474 19.474 0 0 1 2.548-1.831c.1-.535.215-1.063.318-1.589a12.2 12.2 0 0 0 .222-1.592 8.457 8.457 0 0 1 .5-1.326c.237-.514.49-1.068.781-1.659.318-.586.746-1.329 1.3-2.218a29.755 29.755 0 0 1 2.163-2.975c.738-.619 1.527-1.3 2.342-2.041s1.63-1.482 2.445-2.239c.394-.234.815-.464 1.279-.681s.925-.454 1.388-.727c.421-.105.9-.2 1.439-.28a12 12 0 0 1 1.759-.122 9.487 9.487 0 0 1 2.158.2 3.218 3.218 0 0 1 1.36.681 3.5 3.5 0 0 1 .712.97 11.009 11.009 0 0 1 .669 1.573c.1.538.229 1.133.366 1.776q0-.244-.186.194c-.115.3-.3.772-.552 1.412l-.483 1.288a13.709 13.709 0 0 1-3.353 4.474A68.389 68.389 0 0 1 143.778 69a2.612 2.612 0 0 0-.643.7 1.7 1.7 0 0 0-.27.9 2.752 2.752 0 0 0 .409 1.5 2.468 2.468 0 0 0 1.154.965 5.742 5.742 0 0 0 1.367.483 22.446 22.446 0 0 0 2.223.445 23.508 23.508 0 0 0 3.809-.514 21.013 21.013 0 0 0 3.059-.946c.174-.074.464-.186.858-.325a6.7 6.7 0 0 0 1.181-.559c.449.772.856 1.463 1.209 2.074s.629 1.147.834 1.6a32.036 32.036 0 0 1-5.518 3.377 11.033 11.033 0 0 1-4.56 1.14 7.606 7.606 0 0 1-1.941.583 16.692 16.692 0 0 1-2.593.177 12.611 12.611 0 0 1-3.494-.435 6.834 6.834 0 0 1-2.528-1.283 4.812 4.812 0 0 1-1.073-1.178 24.56 24.56 0 0 1-1.116-1.862 5.806 5.806 0 0 0-.913-1.31 1.3 1.3 0 0 0-.961-.416 2.016 2.016 0 0 0-.961.3 5.319 5.319 0 0 0-.836.6l.024.048c-.108.072-.215.146-.32.22l-.041.033v-.007c-.805.545-1.608 1.1-2.421 1.654q-1.384.971-2.83 1.9a14.431 14.431 0 0 1-3.372 1.6 11.08 11.08 0 0 1-3.367.545c-.571 0-1.448-.045-2.622-.141s-2.067-.146-2.674-.146a6.949 6.949 0 0 1-4.94-1.814 10.129 10.129 0 0 1-2.755-5.449 2.546 2.546 0 0 0-.3-.645 2.941 2.941 0 0 0-.669-.643c-.459.347-1.008.765-1.625 1.25s-1.381 1.025-2.273 1.647l-.043-.074-.8.6a10.739 10.739 0 0 1-1.625.982 81.74 81.74 0 0 0-9.81 6.056 35.409 35.409 0 0 0-6.486 5.932q-3.578 4.424-5.955 7.2t-3.446 3.9a31.325 31.325 0 0 1-7 5.434 13.739 13.739 0 0 1-6.472 1.768 3.077 3.077 0 0 1-1.7-.368 1.246 1.246 0 0 1-.533-1.123 2.576 2.576 0 0 1 .272-1.006 4.233 4.233 0 0 1 .951-1.286 25.5 25.5 0 0 0 1.874-2.258l1.611-1.042a2.309 2.309 0 0 0 .213-.727 5.343 5.343 0 0 1 .621-.483c.263-.186.581-.4.939-.643a12.881 12.881 0 0 1 2-2.392q1.624-1.674 4.557-4.29 2.19-1.929 3.993-3.437 1.825-1.516 3.1-2.56a8.766 8.766 0 0 0 .456-.77 7.514 7.514 0 0 0 .4-.877c.461-.7.965-1.541 1.518-2.54s1.209-2.158 2-3.5a15.261 15.261 0 0 0 .906-2.679c.251-1 .476-2.1.7-3.279a.812.812 0 0 1-.136-.421 3.4 3.4 0 0 0-.237-.746 11.485 11.485 0 0 0-2.108 1.087 43.69 43.69 0 0 0-2.478 1.69 21.919 21.919 0 0 1-3.573 2.873 17.128 17.128 0 0 1-3.57 1.749A7.137 7.137 0 0 1 69.4 80.4a10.268 10.268 0 0 1-4.24.824 4.713 4.713 0 0 1-2.669-.621 2.135 2.135 0 0 1-.906-1.9 2.616 2.616 0 0 1 .079-.6c.055-.237.136-.516.239-.841a18.042 18.042 0 0 1-.531-1.121 13.541 13.541 0 0 0 .373-1.522A5.189 5.189 0 0 0 61.5 72.8a.806.806 0 0 0-.774-.6l-.215.076c-.385.217-.944.54-1.656.963s-1.561.949-2.543 1.563q-.473.358-1.183.8c-.633.4-1.4.829-2.28 1.283-.358.3-.808.621-1.338.985s-1.111.777-1.757 1.262c-.64.538-1.271 1.068-1.893 1.6s-1.25 1.063-1.886 1.57A9.166 9.166 0 0 1 43.47 83.8a6.548 6.548 0 0 1-2.28.464 5.059 5.059 0 0 1-3.49-1.041 4.091 4.091 0 0 1-1.14-3.171 33.821 33.821 0 0 1 .208-4.032 9.635 9.635 0 0 1 .691-2.751 3.933 3.933 0 0 0 .318-.564 4.84 4.84 0 0 1 .165-1.085c.105-.461.237-1 .373-1.613.215-1.047.445-2.091.691-3.143.387-.636.793-1.324 1.231-2.048 0-.131-.153-.256-.437-.358l-.528.237a15.47 15.47 0 0 1-2.086 2.034 33.258 33.258 0 0 1-3.049 2.232q-2.717 1.979-5.547 3.984c-.11.136-.311.335-.586.6-.292.272-.609.6-.97 1.006-.179-.315-.4-.724-.669-1.216s-.545-1.056-.834-1.694a1.991 1.991 0 0 0-.265-.442 1.2 1.2 0 0 0-.373-.318" transform="translate(34.589 36.715)" style="fill:#1F43A9"/>
            <path data-name="Trazado 15860" d="M170.62 101.832a3.321 3.321 0 0 1-.6-.062c-.54-.1-.7-.437-.741-1.138v-34.15h26.3l-93.707-52.87-53.6 32.275h8.931l44.664-28.757 82.561 47.228-17-.024v.019h-.743v36.6c-.081.464-.28.712-.641.8a2.964 2.964 0 0 1-.719.079c-.2 0-.32.038-.32.2 0 .122.16.16.478.16.762 0 2.019-.06 2.6-.06.5 0 1.678.06 2.44.06.258 0 .421-.038.421-.16 0-.16-.122-.2-.32-.2m-15.665-59.858v-9.783H147.8V37.6z" transform="translate(67.077 18.919)" style="fill-rule:evenodd;fill:#8D8F94"/>
            <path data-name="Trazado 15861" d="M116.484 60.773v1.587c0 .497-.012.937-.024 1.329s-.033.719-.065.977a3.36 3.36 0 0 1-.088.478 1 1 0 0 1-.158.351.458.458 0 0 1-.284.177 3.003 3.003 0 0 1-.287.05 3.412 3.412 0 0 1-.373.022.491.491 0 0 0-.229.041.118.118 0 0 0-.062.108.145.145 0 0 0 .093.139.654.654 0 0 0 .27.043c.186 0 .392-.01.612-.019s.44-.017.655-.017.425-.017.607-.017h.435c.27 0 .557 0 .863.012s.652.024 1.042.043l1.362.033c.521.012 1.121.022 1.8.022a4.669 4.669 0 0 0 .538-.019.5.5 0 0 0 .294-.119.738.738 0 0 0 .158-.337 3.844 3.844 0 0 0 .074-.411 16.236 16.236 0 0 0 .139-1.181c.015-.191.026-.332.026-.442a.89.89 0 0 0-.019-.229.119.119 0 0 0-.129-.1.145.145 0 0 0-.134.06.569.569 0 0 0-.067.213 2.488 2.488 0 0 1-.282.875 1.208 1.208 0 0 1-.54.478 2.185 2.185 0 0 1-.554.155 6.026 6.026 0 0 1-.617.055c-.206.01-.392.01-.552.01a8 8 0 0 1-1.126-.06 1.515 1.515 0 0 1-.66-.237.857.857 0 0 1-.318-.468 3.044 3.044 0 0 1-.093-.77c0-.11-.007-.258-.007-.44V59.33a.308.308 0 0 1 .021-.134.087.087 0 0 1 .088-.05h.406c.179 0 .378 0 .6.007l.655.01.581.014c.167.007.284.014.361.022a1.739 1.739 0 0 1 .545.136.85.85 0 0 1 .323.246.8.8 0 0 1 .155.332 2.286 2.286 0 0 1 .053.349c.007.112.017.217.024.308a.216.216 0 0 0 .031.115.153.153 0 0 0 .131.048.139.139 0 0 0 .117-.055.277.277 0 0 0 .041-.136 1.144 1.144 0 0 0 .007-.153c0-.036 0-.1.01-.2s.012-.2.022-.33.014-.249.024-.373.014-.234.019-.327c.024-.308.048-.554.069-.736s.041-.32.055-.409a1.511 1.511 0 0 0 .022-.189.16.16 0 0 0-.036-.117.133.133 0 0 0-.093-.031.2.2 0 0 0-.129.065c-.048.043-.1.1-.165.174a.7.7 0 0 1-.332.191 3.094 3.094 0 0 1-.545.084c-.088 0-.232.012-.425.019s-.423.007-.669.007-.5.007-.75.007h-1.083a.106.106 0 0 1-.108-.053.294.294 0 0 1-.021-.148v-4.615a.247.247 0 0 1 .031-.141.1.1 0 0 1 .1-.043h.38c.18 0 .378 0 .6.012s.449.01.674.014.418.012.588.022.287.012.356.022a3.06 3.06 0 0 1 .7.146.931.931 0 0 1 .358.217.829.829 0 0 1 .17.294 1.092 1.092 0 0 1 .072.241 1.716 1.716 0 0 1 .029.239c.007.074.01.131.01.179a.441.441 0 0 0 .036.189.135.135 0 0 0 .129.065.155.155 0 0 0 .136-.065.358.358 0 0 0 .048-.136c.01-.057.017-.141.026-.256s.019-.232.026-.361.014-.249.024-.354.012-.186.017-.237c.019-.277.038-.492.06-.652s.043-.277.06-.356a.946.946 0 0 0 .024-.179.23.23 0 0 0-.022-.112.085.085 0 0 0-.088-.05.485.485 0 0 0-.143.031c-.055.019-.1.029-.148.041a3.091 3.091 0 0 1-.318.057c-.136.017-.294.033-.468.053-.062 0-.2.007-.421.007H117.676c-.131 0-.3 0-.495-.012l-.657-.026c-.232 0-.473 0-.727-.01s-.507-.007-.755-.007a.911.911 0 0 0-.306.033.129.129 0 0 0-.1.131.135.135 0 0 0 .079.131.711.711 0 0 0 .232.031c.134 0 .265 0 .4.014a1.669 1.669 0 0 1 .311.043 1.123 1.123 0 0 1 .466.189.687.687 0 0 1 .237.332 1.8 1.8 0 0 1 .086.519c0 .115.012.237.017.361s.01.28.014.456 0 .4 0 .664v5.611zm-13.5 0v1.587c0 .497-.012.937-.024 1.329s-.036.719-.065.977a3.555 3.555 0 0 1-.091.483.911.911 0 0 1-.158.347.44.44 0 0 1-.282.177 3.003 3.003 0 0 1-.287.05 3.448 3.448 0 0 1-.373.022.484.484 0 0 0-.229.041.116.116 0 0 0-.065.108.144.144 0 0 0 .1.139.666.666 0 0 0 .272.043c.184 0 .39 0 .609-.01l.66-.017.6-.019c.182-.007.327-.01.435-.01q.24 0 .681.014c.289.01.619.017.992.026s.758.014 1.164.014a.615.615 0 0 0 .251-.043.15.15 0 0 0 .1-.139.115.115 0 0 0-.072-.108.466.466 0 0 0-.22-.041c-.093 0-.2 0-.308-.01l-.332-.026c-.11-.012-.206-.024-.294-.036a.783.783 0 0 1-.421-.172.812.812 0 0 1-.206-.349 2.209 2.209 0 0 1-.088-.466c-.031-.268-.053-.593-.065-.989s-.022-.841-.024-1.336 0-1.023 0-1.587V53.46a.538.538 0 0 1 .041-.232.2.2 0 0 1 .108-.115 1.594 1.594 0 0 1 .315-.057c.127-.012.258-.014.4-.014a2.91 2.91 0 0 1 .516.048 2.871 2.871 0 0 1 .643.21 2.739 2.739 0 0 1 .674.454 3.155 3.155 0 0 1 .6.729 3.233 3.233 0 0 1 .325.76 3.668 3.668 0 0 1 .129.7 4.753 4.753 0 0 1 .024.552 3.319 3.319 0 0 1-.237 1.257 3.07 3.07 0 0 1-.6.949 2.778 2.778 0 0 1-.8.6 1.844 1.844 0 0 1-.815.21 1.279 1.279 0 0 0-.4.043.15.15 0 0 0-.112.158.119.119 0 0 0 .074.119.464.464 0 0 0 .146.043 1.032 1.032 0 0 0 .191.017h.191a4.942 4.942 0 0 0 1.8-.327 4.219 4.219 0 0 0 1.427-.913 4.146 4.146 0 0 0 .937-1.4 4.631 4.631 0 0 0 .339-1.785 2.993 2.993 0 0 0-.146-.913 3.512 3.512 0 0 0-.351-.743 2.848 2.848 0 0 0-.418-.519 2.894 2.894 0 0 0-.332-.28 3.284 3.284 0 0 0-.624-.347 4.761 4.761 0 0 0-.994-.292 7.831 7.831 0 0 0-1.455-.124c-.284 0-.583 0-.894.014s-.624.014-.925.024-.583.017-.836.017c-.177 0-.409-.007-.7-.017s-.6-.019-.939-.024-.672-.014-1-.014a.868.868 0 0 0-.306.033.132.132 0 0 0-.1.131.139.139 0 0 0 .079.131.732.732 0 0 0 .232.031c.136 0 .265 0 .4.014a1.669 1.669 0 0 1 .313.043 1.081 1.081 0 0 1 .464.189.7.7 0 0 1 .239.332 1.966 1.966 0 0 1 .086.519c0 .115.012.237.019.361s.007.28.012.456 0 .4 0 .66v5.616zm-12.141 4.641a5.415 5.415 0 0 1-1.936-.342 4.933 4.933 0 0 1-1.561-.961 5.644 5.644 0 0 1-1.159-1.472 7.3 7.3 0 0 1-.717-1.874 9.057 9.057 0 0 1-.249-2.168 9.423 9.423 0 0 1 .263-2.344 5.336 5.336 0 0 1 .715-1.637 3.866 3.866 0 0 1 1.03-1.037 3.946 3.946 0 0 1 1.221-.542 4.853 4.853 0 0 1 1.276-.16 4.906 4.906 0 0 1 2.105.461 5.041 5.041 0 0 1 1.7 1.319 6.267 6.267 0 0 1 1.14 2.091 8.774 8.774 0 0 1 .416 2.765 10.27 10.27 0 0 1-.227 2.27 5.789 5.789 0 0 1-.588 1.606 4.1 4.1 0 0 1-.827 1.054 3.619 3.619 0 0 1-.932.617 3.977 3.977 0 0 1-.913.284 4.044 4.044 0 0 1-.76.069m-.77.915a8.563 8.563 0 0 0 2.574-.378 7.147 7.147 0 0 0 2.1-1.054 6.9 6.9 0 0 0 1.577-1.618 7.351 7.351 0 0 0 .985-2.06 8.255 8.255 0 0 0 .342-2.385 7.531 7.531 0 0 0-.51-2.833 5.872 5.872 0 0 0-1.475-2.153 6.491 6.491 0 0 0-2.328-1.372A9.351 9.351 0 0 0 90.258 52a9.083 9.083 0 0 0-2.466.313 7.029 7.029 0 0 0-1.933.848 6.5 6.5 0 0 0-1.443 1.247 7.1 7.1 0 0 0-.982 1.508 7.72 7.72 0 0 0-.738 3.248 7.764 7.764 0 0 0 .746 3.3 6.793 6.793 0 0 0 .973 1.5 6.492 6.492 0 0 0 1.415 1.233 6.846 6.846 0 0 0 1.876.829 8.726 8.726 0 0 0 2.371.308M71.615 53.443a.389.389 0 0 1 .031-.172.233.233 0 0 1 .131-.084 1.832 1.832 0 0 1 .382-.057c.165-.012.361-.017.588-.017a2.618 2.618 0 0 1 .7.1 2.765 2.765 0 0 1 .75.332 2.69 2.69 0 0 1 .672.614 3.115 3.115 0 0 1 .49.958 4.471 4.471 0 0 1 .184 1.343 4.746 4.746 0 0 1-.158 1.288 3 3 0 0 1-.4.9 2.23 2.23 0 0 1-.523.557 1.6 1.6 0 0 1-.323.186 1.446 1.446 0 0 1-.39.1 4.85 4.85 0 0 1-.588.029c-.153 0-.315-.007-.48-.019s-.327-.036-.48-.062a2.949 2.949 0 0 1-.433-.1.244.244 0 0 1-.131-.11.58.58 0 0 1-.031-.22zm-2.163 7.33v1.587c0 .497-.012.937-.024 1.329s-.033.719-.065.977a3.231 3.231 0 0 1-.088.483.949.949 0 0 1-.158.347.451.451 0 0 1-.284.177 2.948 2.948 0 0 1-.287.05 3.411 3.411 0 0 1-.373.022.466.466 0 0 0-.227.041.114.114 0 0 0-.067.108.144.144 0 0 0 .1.139.674.674 0 0 0 .272.043c.186 0 .392 0 .609-.01l.65-.017.581-.019c.172-.007.3-.01.392-.01s.2 0 .387.01l.664.019c.256 0 .526.012.81.017s.564.01.832.01a.654.654 0 0 0 .27-.043.142.142 0 0 0 .093-.139.115.115 0 0 0-.053-.108.284.284 0 0 0-.165-.041c-.076 0-.165 0-.27-.01s-.213-.017-.32-.026-.213-.024-.306-.036A.742.742 0 0 1 72 65.5a.759.759 0 0 1-.208-.347 2.518 2.518 0 0 1-.088-.483c-.031-.258-.053-.583-.065-.977s-.022-.839-.024-1.336 0-1.03 0-1.6V60.5a.147.147 0 0 1 .038-.117.16.16 0 0 1 .108-.031l1.592.038a.48.48 0 0 1 .179.022.3.3 0 0 1 .151.105c.06.069.155.2.282.368l.44.619.533.755c.186.265.375.526.559.779.337.471.648.877.93 1.228a9.069 9.069 0 0 0 .805.889 3.579 3.579 0 0 0 .774.569 2.333 2.333 0 0 0 .49.206 3.092 3.092 0 0 0 .612.11c.232.022.516.033.856.033H81.7a.733.733 0 0 0 .258-.036.152.152 0 0 0 .093-.146.118.118 0 0 0-.057-.108.279.279 0 0 0-.165-.041 2.048 2.048 0 0 1-.234-.012 5.354 5.354 0 0 1-.277-.041 4.13 4.13 0 0 1-.294-.069 2.953 2.953 0 0 1-.449-.177 4.064 4.064 0 0 1-.593-.363 5.936 5.936 0 0 1-.715-.636q-.807-.853-1.778-2.06T75.3 59.638a9.117 9.117 0 0 0 1.448-1.422 4.6 4.6 0 0 0 .75-1.343 4.086 4.086 0 0 0 .217-1.329 3.087 3.087 0 0 0-.122-.858 3.349 3.349 0 0 0-.308-.722 3.155 3.155 0 0 0-.4-.557 2.393 2.393 0 0 0-.411-.366 4.129 4.129 0 0 0-1.056-.507 6.174 6.174 0 0 0-1.147-.229 11.724 11.724 0 0 0-1.166-.05c-.148 0-.33 0-.557.007l-.712.019-.727.019c-.232.007-.428.01-.586.01-.1 0-.239 0-.418-.01s-.385-.012-.617-.019-.473-.014-.727-.019-.5-.007-.748-.007a.853.853 0 0 0-.306.033.133.133 0 0 0-.1.131.135.135 0 0 0 .079.131.721.721 0 0 0 .232.031c.136 0 .265 0 .4.014a1.73 1.73 0 0 1 .315.043 1.081 1.081 0 0 1 .464.189.7.7 0 0 1 .239.332 2.08 2.08 0 0 1 .084.519 17.628 17.628 0 0 1 .031.817c.002.176 0 .4 0 .66v5.616zm-13.5 0v1.587c0 .497-.012.937-.026 1.329s-.031.719-.062.977a3.987 3.987 0 0 1-.088.483.951.951 0 0 1-.16.347.445.445 0 0 1-.284.177 2.855 2.855 0 0 1-.284.05 3.485 3.485 0 0 1-.373.022.49.49 0 0 0-.229.041.12.12 0 0 0-.065.108.144.144 0 0 0 .1.139.653.653 0 0 0 .27.043c.186 0 .392 0 .612-.01l.657-.017.6-.019a13.346 13.346 0 0 1 1.114.004c.292.014.621.017.992.026s.762.014 1.166.014a.615.615 0 0 0 .251-.043.15.15 0 0 0 .1-.139.12.12 0 0 0-.069-.108.488.488 0 0 0-.225-.041c-.091 0-.194 0-.308-.01l-.33-.026c-.11-.012-.208-.024-.3-.036a.673.673 0 0 1-.624-.521 2.369 2.369 0 0 1-.091-.466c-.029-.268-.05-.593-.062-.989s-.022-.841-.026-1.336 0-1.023 0-1.587V53.46a.5.5 0 0 1 .041-.232.2.2 0 0 1 .108-.115 1.557 1.557 0 0 1 .318-.057 4.18 4.18 0 0 1 .4-.014 2.948 2.948 0 0 1 .516.048 2.8 2.8 0 0 1 .638.21 2.613 2.613 0 0 1 .674.454 2.994 2.994 0 0 1 .6.729 3.137 3.137 0 0 1 .325.76 3.883 3.883 0 0 1 .131.7 5.353 5.353 0 0 1 .024.552 3.319 3.319 0 0 1-.239 1.257 3.074 3.074 0 0 1-.6.949 2.769 2.769 0 0 1-.8.6 1.837 1.837 0 0 1-.815.21 1.268 1.268 0 0 0-.4.043.154.154 0 0 0-.115.158.122.122 0 0 0 .079.119.455.455 0 0 0 .141.043 1.1 1.1 0 0 0 .194.017h.191a4.923 4.923 0 0 0 1.8-.327 4.229 4.229 0 0 0 1.429-.913 4.106 4.106 0 0 0 .934-1.4 4.676 4.676 0 0 0 .339-1.785 2.855 2.855 0 0 0-.148-.913 3.289 3.289 0 0 0-.349-.743 2.751 2.751 0 0 0-.418-.519 3.122 3.122 0 0 0-.332-.28 3.332 3.332 0 0 0-.621-.347 4.832 4.832 0 0 0-1-.292 7.792 7.792 0 0 0-1.455-.124c-.284 0-.583 0-.894.014s-.621.014-.925.024-.583.017-.836.017c-.177 0-.409-.007-.7-.017s-.6-.019-.942-.024-.669-.014-1-.014a.839.839 0 0 0-.3.033.129.129 0 0 0-.1.131.135.135 0 0 0 .079.131.694.694 0 0 0 .229.031c.136 0 .268 0 .4.014a1.7 1.7 0 0 1 .315.043 1.092 1.092 0 0 1 .466.189.676.676 0 0 1 .237.332 1.879 1.879 0 0 1 .084.519 17.628 17.628 0 0 1 .033.817c.004.176 0 .4 0 .66v5.616z" transform="translate(75.199 72.271)" style="fill:#1F43A9"/>
            <path data-name="Trazado 15862" d="M140.42 66.329a8.028 8.028 0 0 0 .982-.062 5.484 5.484 0 0 0 .982-.234 4.566 4.566 0 0 0 .946-.452 3.747 3.747 0 0 0 1.03-.975 3.5 3.5 0 0 0 .538-1.1 4.063 4.063 0 0 0 .155-1.106 4.566 4.566 0 0 0-.16-1.228 4.153 4.153 0 0 0-.514-1.13 6.4 6.4 0 0 0-.927-1.116 13.606 13.606 0 0 0-1.4-1.188l-.514-.385a9.941 9.941 0 0 1-1.176-1.009 3.015 3.015 0 0 1-.6-.82 1.924 1.924 0 0 1-.165-.8 1.825 1.825 0 0 1 .263-.975 1.794 1.794 0 0 1 .75-.667 2.7 2.7 0 0 1 1.164-.241 2.8 2.8 0 0 1 .989.155 2.149 2.149 0 0 1 1.006.741 1.988 1.988 0 0 1 .3.488 2.593 2.593 0 0 1 .146.437 1.3 1.3 0 0 1 .036.282.535.535 0 0 0 .043.244.145.145 0 0 0 .141.084.155.155 0 0 0 .155-.124 1.365 1.365 0 0 0 .045-.423c0-.473.007-.858.019-1.154s.024-.519.036-.683.019-.282.019-.356a.168.168 0 0 0-.067-.146.544.544 0 0 0-.189-.074 8.611 8.611 0 0 0-.951-.206 10.024 10.024 0 0 0-1.49-.106 5.676 5.676 0 0 0-1.733.256 4.015 4.015 0 0 0-1.336.715 3.2 3.2 0 0 0-.856 1.095 3.247 3.247 0 0 0-.3 1.388 3.969 3.969 0 0 0 .256 1.432 4.845 4.845 0 0 0 .853 1.408 10.634 10.634 0 0 0 1.6 1.494l.844.657a7.947 7.947 0 0 1 .922.832 3.822 3.822 0 0 1 .545.743 2.547 2.547 0 0 1 .26.683 3.005 3.005 0 0 1 .067.667 1.89 1.89 0 0 1-.153.736 2.117 2.117 0 0 1-.454.669 2.287 2.287 0 0 1-.765.49 3 3 0 0 1-1.083.189 3.25 3.25 0 0 1-1.092-.177 2.323 2.323 0 0 1-.92-.59 2.576 2.576 0 0 1-.6-1.078 4.526 4.526 0 0 1-.117-.495 2.476 2.476 0 0 1-.05-.437.517.517 0 0 0-.029-.213.155.155 0 0 0-.153-.1.18.18 0 0 0-.158.136 1.062 1.062 0 0 0-.062.339l-.021.358c-.007.16-.022.351-.031.571s-.021.456-.026.71-.014.5-.014.755a1.337 1.337 0 0 0 .026.311.341.341 0 0 0 .1.182.74.74 0 0 0 .22.129 5.237 5.237 0 0 0 1.236.368 8.068 8.068 0 0 0 1.439.108m-14.745-5.556v1.587c0 .497-.012.937-.024 1.329s-.033.719-.065.977a3.358 3.358 0 0 1-.088.478.955.955 0 0 1-.158.351.451.451 0 0 1-.284.177 3.003 3.003 0 0 1-.287.05 3.411 3.411 0 0 1-.373.022.5.5 0 0 0-.229.041.118.118 0 0 0-.062.108.145.145 0 0 0 .093.139.666.666 0 0 0 .272.043c.184 0 .39-.01.609-.019s.44-.017.655-.017.425-.017.609-.017h.433c.272 0 .559 0 .863.012s.652.024 1.042.043l1.365.033a76.85 76.85 0 0 0 1.8.022 4.645 4.645 0 0 0 .538-.019.489.489 0 0 0 .294-.119.738.738 0 0 0 .158-.337c.024-.093.05-.234.076-.411s.053-.375.076-.581.045-.409.062-.6.024-.332.024-.442a.8.8 0 0 0-.019-.229.118.118 0 0 0-.129-.1.138.138 0 0 0-.131.06.522.522 0 0 0-.069.213 2.542 2.542 0 0 1-.28.875 1.2 1.2 0 0 1-.543.478 2.157 2.157 0 0 1-.554.155 5.908 5.908 0 0 1-.617.055c-.206.01-.39.01-.552.01a8.018 8.018 0 0 1-1.126-.06 1.516 1.516 0 0 1-.66-.237.854.854 0 0 1-.315-.468 3.143 3.143 0 0 1-.1-.77c0-.11-.007-.258-.007-.44V59.33a.348.348 0 0 1 .021-.134.089.089 0 0 1 .088-.05h.406c.179 0 .378 0 .6.007l.655.01.581.014c.17.007.287.014.361.022a1.739 1.739 0 0 1 .545.136.878.878 0 0 1 .325.246.8.8 0 0 1 .153.332 2.3 2.3 0 0 1 .055.349c0 .112.014.217.021.308a.215.215 0 0 0 .031.115.155.155 0 0 0 .131.048.133.133 0 0 0 .117-.055.254.254 0 0 0 .041-.136 1.144 1.144 0 0 0 .007-.153c0-.036 0-.1.01-.2s.012-.2.021-.33l.026-.373c.009-.124.012-.234.017-.327.024-.308.048-.554.069-.736s.041-.32.055-.409a1.154 1.154 0 0 0 .021-.189.16.16 0 0 0-.036-.117.131.131 0 0 0-.091-.031.2.2 0 0 0-.131.065 2.1 2.1 0 0 0-.163.174.719.719 0 0 1-.335.191 3.094 3.094 0 0 1-.545.084c-.088 0-.229.012-.425.019s-.421.007-.669.007-.5.007-.75.007h-1.083a.106.106 0 0 1-.108-.053.359.359 0 0 1-.021-.148v-4.615a.247.247 0 0 1 .031-.141.1.1 0 0 1 .1-.043h.38c.174 0 .38 0 .6.012s.449.01.674.014.418.012.588.022.287.012.356.022a3.06 3.06 0 0 1 .7.146.9.9 0 0 1 .358.217.873.873 0 0 1 .172.294 1.233 1.233 0 0 1 .072.241c.012.081.024.163.029.239s.01.131.01.179a.445.445 0 0 0 .033.189.136.136 0 0 0 .131.065.15.15 0 0 0 .134-.065.408.408 0 0 0 .05-.136c.01-.057.017-.141.024-.256s.019-.232.026-.361.014-.249.024-.354.014-.186.017-.237c.019-.277.038-.492.06-.652s.043-.277.062-.356a1.2 1.2 0 0 0 .024-.179.262.262 0 0 0-.021-.112.089.089 0 0 0-.088-.05.484.484 0 0 0-.146.031 1.4 1.4 0 0 1-.148.041 3.149 3.149 0 0 1-.315.057c-.139.017-.294.033-.471.053-.06 0-.2.007-.418.007h-4.16c-.129 0-.294 0-.492-.012l-.66-.026c-.232 0-.471 0-.727-.01s-.507-.007-.755-.007a.912.912 0 0 0-.306.033.132.132 0 0 0-.1.131.135.135 0 0 0 .079.131.721.721 0 0 0 .232.031c.134 0 .265 0 .4.014a1.669 1.669 0 0 1 .311.043 1.123 1.123 0 0 1 .466.189.688.688 0 0 1 .237.332 1.881 1.881 0 0 1 .088.519c0 .115.01.237.017.361s.01.28.012.456 0 .4 0 .664v5.611zm-9.782 0v1.651c0 .5-.01.956-.024 1.353s-.033.722-.065.98a1.747 1.747 0 0 1-.148.629.515.515 0 0 1-.382.287 3.102 3.102 0 0 1-.284.05 3.458 3.458 0 0 1-.375.022.473.473 0 0 0-.227.041.116.116 0 0 0-.065.108.145.145 0 0 0 .093.139.674.674 0 0 0 .272.043c.186 0 .392 0 .609-.01l.66-.017.6-.019a13.665 13.665 0 0 1 1.126.004c.293.014.626.017.994.026s.765.014 1.171.014a.6.6 0 0 0 .249-.043.15.15 0 0 0 .1-.139.12.12 0 0 0-.069-.108.5.5 0 0 0-.225-.041c-.093 0-.194 0-.308-.01l-.327-.026c-.11-.012-.208-.024-.3-.036a.826.826 0 0 1-.418-.158.654.654 0 0 1-.22-.3 1.7 1.7 0 0 1-.093-.435c-.024-.265-.041-.593-.053-.992s-.012-.853-.017-1.36 0-1.056 0-1.651v-6.28c0-.177.007-.33.01-.456s.012-.246.019-.361a1.569 1.569 0 0 1 .17-.727.684.684 0 0 1 .507-.313 3.46 3.46 0 0 1 .289-.043 2.346 2.346 0 0 1 .26-.014.562.562 0 0 0 .215-.033.16.16 0 0 0 .079-.148c0-.055-.038-.091-.105-.117a.961.961 0 0 0-.28-.029c-.177 0-.368 0-.576.007l-.629.019c-.211.007-.406.012-.583.019s-.33.01-.447.01c-.134 0-.3 0-.5-.01s-.406-.012-.631-.019-.442-.014-.66-.019-.416-.007-.593-.007a1.294 1.294 0 0 0-.33.029c-.072.026-.108.062-.108.117a.155.155 0 0 0 .079.148.548.548 0 0 0 .213.033 3.169 3.169 0 0 1 .335.017 2.187 2.187 0 0 1 .325.057.647.647 0 0 1 .447.313 1.539 1.539 0 0 1 .177.71c0 .115.012.237.017.361s.007.28.012.456 0 .4 0 .66v5.616zm-12.069 0v1.587c0 .497-.012.937-.024 1.329s-.036.719-.065.977a2.25 2.25 0 0 1-.151.674.526.526 0 0 1-.38.332 3.003 3.003 0 0 1-.287.05 3.457 3.457 0 0 1-.375.022.479.479 0 0 0-.227.041.116.116 0 0 0-.065.108.145.145 0 0 0 .093.139.687.687 0 0 0 .275.043c.184 0 .39 0 .609-.01l.657-.017.6-.019c.179-.007.327-.01.435-.01.174 0 .406 0 .7.014s.628.017 1 .026.765.014 1.171.014a.611.611 0 0 0 .249-.043.154.154 0 0 0 .1-.139.12.12 0 0 0-.069-.108.5.5 0 0 0-.225-.041c-.091 0-.194 0-.308-.01l-.327-.026c-.11-.012-.208-.024-.3-.036a.74.74 0 0 1-.418-.172.772.772 0 0 1-.208-.349 2.372 2.372 0 0 1-.088-.466c-.031-.268-.053-.593-.065-.989s-.019-.841-.024-1.336 0-1.023 0-1.587v-7.494l2.3.055a4.693 4.693 0 0 1 1.279.177 1.541 1.541 0 0 1 .672.378.752.752 0 0 1 .213.468l.019.2a.817.817 0 0 0 .05.289.159.159 0 0 0 .151.079.118.118 0 0 0 .115-.079.678.678 0 0 0 .05-.213c0-.127 0-.284.01-.48s.012-.4.019-.614.01-.418.017-.6.007-.327.007-.428a1.047 1.047 0 0 0-.022-.3.116.116 0 0 0-.122-.086.846.846 0 0 0-.17.024l-.325.067a11.514 11.514 0 0 1-1.264.091h-7.251c-.2 0-.413 0-.624-.012s-.425-.019-.631-.031-.394-.029-.576-.048a1.855 1.855 0 0 1-.375-.074 1.595 1.595 0 0 1-.244-.1.448.448 0 0 0-.167-.05.143.143 0 0 0-.131.084.9.9 0 0 0-.088.263c-.01.033-.026.115-.057.246s-.057.289-.093.473l-.11.557c-.036.187-.065.358-.088.509a2.282 2.282 0 0 0-.036.318.508.508 0 0 0 .033.22.134.134 0 0 0 .131.074.16.16 0 0 0 .129-.057.471.471 0 0 0 .072-.163 1.515 1.515 0 0 1 .1-.272 2.587 2.587 0 0 1 .21-.37.93.93 0 0 1 .347-.306 1.776 1.776 0 0 1 .562-.158 6.639 6.639 0 0 1 .867-.065l2.729-.074zm-14.91-7.33a.329.329 0 0 1 .036-.172.218.218 0 0 1 .131-.084 1.78 1.78 0 0 1 .38-.057 8.34 8.34 0 0 1 .59-.017 2.631 2.631 0 0 1 .705.1 2.771 2.771 0 0 1 .746.332 2.627 2.627 0 0 1 .676.614 3.112 3.112 0 0 1 .488.958 4.465 4.465 0 0 1 .186 1.343 4.739 4.739 0 0 1-.16 1.288 3 3 0 0 1-.4.9 2.147 2.147 0 0 1-.523.557 1.524 1.524 0 0 1-.32.186 1.5 1.5 0 0 1-.39.1 4.949 4.949 0 0 1-.59.029 5.26 5.26 0 0 1-.963-.081 2.81 2.81 0 0 1-.428-.1.228.228 0 0 1-.131-.11.488.488 0 0 1-.036-.22zm-2.158 7.33v1.587c0 .497-.012.937-.024 1.329s-.033.719-.065.977a4.537 4.537 0 0 1-.086.483.951.951 0 0 1-.16.347.451.451 0 0 1-.284.177q-.122.029-.287.05a3.411 3.411 0 0 1-.373.022.5.5 0 0 0-.229.041.118.118 0 0 0-.062.108.145.145 0 0 0 .093.139.674.674 0 0 0 .272.043c.186 0 .39 0 .609-.01l.65-.017.581-.019c.174-.007.306-.01.394-.01.072 0 .2 0 .387.01l.662.019c.258 0 .528.012.813.017s.559.01.829.01a.682.682 0 0 0 .272-.043.145.145 0 0 0 .093-.139.125.125 0 0 0-.053-.108.3.3 0 0 0-.167-.041c-.076 0-.165 0-.268-.01s-.215-.017-.325-.026-.21-.024-.3-.036a.75.75 0 0 1-.435-.175.776.776 0 0 1-.206-.347 2.346 2.346 0 0 1-.088-.483c-.029-.258-.053-.583-.065-.977s-.022-.839-.024-1.336 0-1.03 0-1.6V60.5a.147.147 0 0 1 .041-.117.165.165 0 0 1 .108-.031l1.594.038a.493.493 0 0 1 .179.022.334.334 0 0 1 .151.105c.06.069.155.2.28.368s.272.38.437.619.351.49.535.755.375.526.559.779a31 31 0 0 0 .93 1.228 8.784 8.784 0 0 0 .808.889 3.5 3.5 0 0 0 .77.569 2.524 2.524 0 0 0 .492.206 3.066 3.066 0 0 0 .609.11c.237.022.521.033.858.033H99a.718.718 0 0 0 .256-.036.148.148 0 0 0 .093-.146.122.122 0 0 0-.055-.108.289.289 0 0 0-.165-.041 2.062 2.062 0 0 1-.237-.012 6.292 6.292 0 0 1-.277-.041 3.884 3.884 0 0 1-.292-.069 3.082 3.082 0 0 1-.454-.177 4.186 4.186 0 0 1-.59-.363 5.935 5.935 0 0 1-.715-.636q-.8-.853-1.78-2.06T92.6 59.638a9.043 9.043 0 0 0 1.451-1.422 4.6 4.6 0 0 0 .75-1.343 3.962 3.962 0 0 0 .217-1.329 3 3 0 0 0-.122-.858 3.238 3.238 0 0 0-.311-.722 2.926 2.926 0 0 0-.4-.557 2.394 2.394 0 0 0-.411-.366 4.091 4.091 0 0 0-1.056-.507 6.135 6.135 0 0 0-1.147-.229c-.39-.036-.777-.053-1.166-.05-.146 0-.327 0-.554.007l-.715.019-.727.019c-.232.007-.425.01-.586.01-.1 0-.237 0-.416-.01s-.387-.012-.619-.019-.473-.014-.727-.019-.5-.007-.746-.007a.853.853 0 0 0-.306.033.132.132 0 0 0-.1.131.135.135 0 0 0 .079.131.711.711 0 0 0 .232.031c.134 0 .265 0 .4.014a1.729 1.729 0 0 1 .315.043 1.081 1.081 0 0 1 .464.189.676.676 0 0 1 .237.332 1.872 1.872 0 0 1 .086.519l.019.361c.007.124.01.28.012.456s0 .4 0 .66v5.616z" transform="translate(118.006 72.271)" style="fill:#1F43A9"/>
        </g>
    </g>
</svg>
